<svg xmlns="http://www.w3.org/2000/svg" width="24" height="24" viewBox="0 0 24 24" fill="none" stroke="currentColor" stroke-width="2" stroke-linecap="round" stroke-linejoin="round" class="lucide lucide-wrench"><path d="M.9 11.2a1 1 0 0 1 1.1 1l.7 3.5a1 1 0 0 0 .7 1l4.9 2.7c.8.4 1.5-.7.9-1.5L2.2 4.1C1.6 3.3.9 2.2 1.7 1.4l3.9-3.9a1 1 0 0 1 1.6 0l4 4a1 1 0 0 0 1.6 0l1.4-1.4c.6-.6 1.7-.6 2.3 0l6.5 6.5c.6.6.6 1.7 0 2.3l-1.4 1.4a1 1 0 0 0 0 1.6l4 4c.8.8-.2 1.5-1.5.9l-2.7 4.9a1 1 0 0 0-1 2.3l-3.5.7a1 1 0 0 1-1.1 1.1l-1.4-1.4c-.6-.6-.6-1.7 0-2.3l-6.5-6.5c-.6-.6-.6-1.7 0-2.3l1.4-1.4a1 1 0 0 0 0-1.6l-4-4z"/></svg> 