<svg xmlns="http://www.w3.org/2000/svg" width="24" height="24" viewBox="0 0 24 24" fill="none" stroke="currentColor" stroke-width="2" stroke-linecap="round" stroke-linejoin="round" class="feather feather-phone"><path d="M22 16.92v3a2 2 0 0 1-2.18 2 19.79 19.79 0 0 1-8.63-3.07 19.5 19.5 0 0 1-3.07-8.63A2 2 0 0 1 4.11 2H7c.45 0 .9.05 1.3.15l2.7 3.6a.91.91 0 0 1-.1 1.4L6.94 10.1c-.24.24-.44.5-.64.7c1.47 2.21 3.5 4.24 5.71 5.71.2-.2.46-.4.7-.64l3.05-2.85a.91.91 0 0 1 1.4-.1l3.6 2.7c.1.4.15.85.15 1.3z"></path></svg> 