<svg width="20" height="20" viewBox="0 0 20 20" fill="none" xmlns="http://www.w3.org/2000/svg">
<path fill-rule="evenodd" clip-rule="evenodd" d="M14.583 12.5C14.2062 12.5 13.6738 12.5521 13.1195 12.628C12.8606 12.6635 12.6631 12.8609 12.6277 13.1199C12.5518 13.6741 12.4997 14.2066 12.4997 14.5834C12.4997 14.9602 12.5518 15.4926 12.6277 16.0469C12.6631 16.3058 12.8606 16.5032 13.1195 16.5387C13.6738 16.6146 14.2062 16.6667 14.583 16.6667C14.9598 16.6667 15.4922 16.6146 16.0465 16.5387C16.3054 16.5032 16.5029 16.3058 16.5383 16.0469C16.6143 15.4926 16.6663 14.9602 16.6663 14.5834C16.6663 14.2066 16.6143 13.6741 16.5383 13.1199C16.5029 12.8609 16.3054 12.6635 16.0465 12.628C15.4922 12.5521 14.9598 12.5 14.583 12.5ZM12.8934 10.9768C11.8935 11.1137 11.1134 11.8938 10.9764 12.8937C10.8979 13.4672 10.833 14.0902 10.833 14.5834C10.833 15.0766 10.8979 15.6995 10.9764 16.273C11.1134 17.2729 11.8935 18.053 12.8934 18.19C13.4669 18.2685 14.0898 18.3334 14.583 18.3334C15.0762 18.3334 15.6991 18.2685 16.2726 18.19C17.2726 18.053 18.0527 17.2729 18.1896 16.273C18.2681 15.6995 18.333 15.0766 18.333 14.5834C18.333 14.0902 18.2681 13.4672 18.1896 12.8937C18.0527 11.8938 17.2726 11.1137 16.2726 10.9768C15.6991 10.8982 15.0762 10.8334 14.583 10.8334C14.0898 10.8334 13.4669 10.8982 12.8934 10.9768Z" fill="#5F6165"/>
<path fill-rule="evenodd" clip-rule="evenodd" d="M5.41699 12.5C5.04017 12.5 4.50776 12.5521 3.9535 12.628C3.69456 12.6635 3.49712 12.8609 3.46165 13.1199C3.38575 13.6741 3.33366 14.2066 3.33366 14.5834C3.33366 14.9602 3.38575 15.4926 3.46165 16.0469C3.49712 16.3058 3.69456 16.5032 3.9535 16.5387C4.50776 16.6146 5.04017 16.6667 5.41699 16.6667C5.79381 16.6667 6.32622 16.6146 6.88048 16.5387C7.13942 16.5032 7.33687 16.3058 7.37233 16.0469C7.44824 15.4926 7.50033 14.9602 7.50033 14.5834C7.50033 14.2066 7.44824 13.6741 7.37233 13.1199C7.33687 12.8609 7.13942 12.6635 6.88048 12.628C6.32622 12.5521 5.79381 12.5 5.41699 12.5ZM3.72736 10.9768C2.72744 11.1137 1.94734 11.8938 1.8104 12.8937C1.73186 13.4672 1.66699 14.0902 1.66699 14.5834C1.66699 15.0766 1.73186 15.6995 1.8104 16.273C1.94734 17.2729 2.72744 18.053 3.72736 18.19C4.30086 18.2685 4.92379 18.3334 5.41699 18.3334C5.91019 18.3334 6.53312 18.2685 7.10663 18.19C8.10655 18.053 8.88664 17.2729 9.02358 16.273C9.10213 15.6995 9.16699 15.0766 9.16699 14.5834C9.16699 14.0902 9.10213 13.4672 9.02358 12.8937C8.88664 11.8938 8.10655 11.1137 7.10663 10.9768C6.53312 10.8982 5.91019 10.8334 5.41699 10.8334C4.92379 10.8334 4.30086 10.8982 3.72736 10.9768Z" fill="#5F6165"/>
<path fill-rule="evenodd" clip-rule="evenodd" d="M14.583 3.33329C14.2062 3.33329 13.6738 3.38538 13.1195 3.46129C12.8606 3.49675 12.6631 3.6942 12.6277 3.95314C12.5518 4.5074 12.4997 5.03981 12.4997 5.41663C12.4997 5.79344 12.5518 6.32585 12.6277 6.88012C12.6631 7.13906 12.8606 7.3365 13.1195 7.37196C13.6738 7.44787 14.2062 7.49996 14.583 7.49996C14.9598 7.49996 15.4922 7.44787 16.0465 7.37196C16.3054 7.3365 16.5029 7.13906 16.5383 6.88012C16.6143 6.32585 16.6663 5.79344 16.6663 5.41663C16.6663 5.03981 16.6143 4.5074 16.5383 3.95314C16.5029 3.6942 16.3054 3.49675 16.0465 3.46129C15.4922 3.38538 14.9598 3.33329 14.583 3.33329ZM12.8934 1.81004C11.8935 1.94698 11.1134 2.72707 10.9764 3.72699C10.8979 4.3005 10.833 4.92343 10.833 5.41663C10.833 5.90982 10.8979 6.53275 10.9764 7.10626C11.1134 8.10618 11.8935 8.88627 12.8934 9.02322C13.4669 9.10176 14.0898 9.16663 14.583 9.16663C15.0762 9.16663 15.6991 9.10176 16.2726 9.02322C17.2726 8.88627 18.0527 8.10618 18.1896 7.10626C18.2681 6.53275 18.333 5.90982 18.333 5.41663C18.333 4.92343 18.2681 4.3005 18.1896 3.72699C18.0527 2.72707 17.2726 1.94698 16.2726 1.81004C15.6991 1.73149 15.0762 1.66663 14.583 1.66663C14.0898 1.66663 13.4669 1.73149 12.8934 1.81004Z" fill="#5F6165"/>
<path fill-rule="evenodd" clip-rule="evenodd" d="M5.41699 3.33329C5.04017 3.33329 4.50776 3.38538 3.9535 3.46129C3.69456 3.49675 3.49712 3.6942 3.46165 3.95314C3.38575 4.5074 3.33366 5.03981 3.33366 5.41663C3.33366 5.79344 3.38575 6.32585 3.46165 6.88012C3.49712 7.13906 3.69456 7.3365 3.9535 7.37196C4.50776 7.44787 5.04017 7.49996 5.41699 7.49996C5.79381 7.49996 6.32622 7.44787 6.88048 7.37196C7.13942 7.3365 7.33687 7.13906 7.37233 6.88012C7.44824 6.32585 7.50033 5.79344 7.50033 5.41663C7.50033 5.03981 7.44824 4.5074 7.37233 3.95314C7.33687 3.6942 7.13942 3.49675 6.88048 3.46129C6.32622 3.38538 5.79381 3.33329 5.41699 3.33329ZM3.72736 1.81004C2.72744 1.94698 1.94734 2.72707 1.8104 3.72699C1.73186 4.3005 1.66699 4.92343 1.66699 5.41663C1.66699 5.90982 1.73186 6.53275 1.8104 7.10626C1.94734 8.10618 2.72744 8.88627 3.72736 9.02322C4.30086 9.10176 4.92379 9.16663 5.41699 9.16663C5.91019 9.16663 6.53312 9.10176 7.10663 9.02322C8.10655 8.88627 8.88664 8.10618 9.02358 7.10626C9.10213 6.53275 9.16699 5.90982 9.16699 5.41663C9.16699 4.92343 9.10213 4.3005 9.02358 3.72699C8.88664 2.72707 8.10655 1.94698 7.10663 1.81004C6.53312 1.73149 5.91019 1.66663 5.41699 1.66663C4.92379 1.66663 4.30086 1.73149 3.72736 1.81004Z" fill="#5F6165"/>
</svg>
