<svg width="24" height="24" viewBox="0 0 24 24" fill="none" xmlns="http://www.w3.org/2000/svg">
<path d="M19.2725 4C20.7787 4 22 5.26637 22 6.82812V17.1963C22 18.758 20.7787 20.0244 19.2725 20.0244H4.72754C3.22134 20.0244 2 18.758 2 17.1963V6.82812C2 5.26639 3.22134 4.00002 4.72754 4H19.2725ZM13.5645 13.8574C12.6254 14.539 11.3746 14.539 10.4355 13.8574L3.81836 9.05371V17.1963C3.81836 17.7169 4.22549 18.1386 4.72754 18.1387H19.2725C19.7745 18.1387 20.1816 17.7169 20.1816 17.1963V9.05371L13.5645 13.8574ZM4.72754 5.88574C4.24926 5.88577 3.85735 6.26857 3.82129 6.75488L11.4785 12.3135C11.7915 12.5406 12.2085 12.5406 12.5215 12.3135L20.1777 6.75488C20.1416 6.26859 19.7507 5.88574 19.2725 5.88574H4.72754Z" fill="#7C7C8D"/>
</svg>
