<svg width="52" height="52" viewBox="0 0 52 52" fill="none" xmlns="http://www.w3.org/2000/svg">
<g filter="url(#filter0_d_2186_6600)">
<rect x="4" y="2" width="44" height="44" rx="22" fill="white" shape-rendering="crispEdges"/>
<path d="M25.9994 19.8334C25.7783 19.8334 25.5664 19.9212 25.4101 20.0775C25.2538 20.2338 25.166 20.4457 25.166 20.6667V24.0001C25.166 24.2211 25.2538 24.4331 25.4101 24.5893C25.5664 24.7456 25.7783 24.8334 25.9994 24.8334C26.2204 24.8334 26.4323 24.7456 26.5886 24.5893C26.7449 24.4331 26.8327 24.2211 26.8327 24.0001V20.6667C26.8327 20.4457 26.7449 20.2338 26.5886 20.0775C26.4323 19.9212 26.2204 19.8334 25.9994 19.8334ZM26.766 27.0167C26.7478 26.9636 26.7226 26.9132 26.691 26.8667L26.591 26.7417C26.4738 26.6261 26.325 26.5478 26.1634 26.5166C26.0017 26.4855 25.8344 26.5029 25.6827 26.5667C25.5817 26.6089 25.4887 26.6681 25.4077 26.7417C25.3305 26.8196 25.2693 26.912 25.2279 27.0135C25.1864 27.115 25.1654 27.2237 25.166 27.3334C25.1673 27.4423 25.19 27.5499 25.2327 27.6501C25.2701 27.7535 25.3298 27.8474 25.4076 27.9252C25.4854 28.0029 25.5793 28.0627 25.6827 28.1001C25.7824 28.1442 25.8903 28.1669 25.9994 28.1669C26.1084 28.1669 26.2163 28.1442 26.316 28.1001C26.4194 28.0627 26.5133 28.0029 26.5911 27.9252C26.6689 27.8474 26.7286 27.7535 26.766 27.6501C26.8087 27.5499 26.8314 27.4423 26.8327 27.3334C26.8368 27.2779 26.8368 27.2222 26.8327 27.1667C26.8183 27.1136 26.7958 27.063 26.766 27.0167ZM25.9994 15.6667C24.3512 15.6667 22.74 16.1555 21.3696 17.0712C19.9992 17.9868 18.9311 19.2883 18.3004 20.8111C17.6696 22.3338 17.5046 24.0093 17.8261 25.6258C18.1477 27.2423 18.9414 28.7272 20.1068 29.8926C21.2722 31.0581 22.7571 31.8517 24.3736 32.1733C25.9901 32.4948 27.6657 32.3298 29.1884 31.6991C30.7111 31.0683 32.0126 30.0002 32.9283 28.6298C33.8439 27.2594 34.3327 25.6483 34.3327 24.0001C34.3327 22.9057 34.1171 21.8221 33.6983 20.8111C33.2796 19.8 32.6657 18.8813 31.8919 18.1075C31.1181 17.3337 30.1994 16.7199 29.1884 16.3011C28.1773 15.8823 27.0937 15.6667 25.9994 15.6667ZM25.9994 30.6667C24.6808 30.6667 23.3919 30.2758 22.2956 29.5432C21.1992 28.8107 20.3447 27.7695 19.8402 26.5513C19.3356 25.3331 19.2035 23.9927 19.4608 22.6995C19.718 21.4063 20.353 20.2184 21.2853 19.286C22.2177 18.3537 23.4055 17.7187 24.6988 17.4615C25.992 17.2043 27.3324 17.3363 28.5506 17.8409C29.7687 18.3455 30.8099 19.2 31.5425 20.2963C32.275 21.3926 32.666 22.6815 32.666 24.0001C32.666 25.7682 31.9636 27.4639 30.7134 28.7141C29.4632 29.9644 27.7675 30.6667 25.9994 30.6667Z" fill="#FF5A5A"/>
</g>
<defs>
<filter id="filter0_d_2186_6600" x="0" y="0" width="52" height="52" filterUnits="userSpaceOnUse" color-interpolation-filters="sRGB">
<feFlood flood-opacity="0" result="BackgroundImageFix"/>
<feColorMatrix in="SourceAlpha" type="matrix" values="0 0 0 0 0 0 0 0 0 0 0 0 0 0 0 0 0 0 127 0" result="hardAlpha"/>
<feOffset dy="2"/>
<feGaussianBlur stdDeviation="2"/>
<feComposite in2="hardAlpha" operator="out"/>
<feColorMatrix type="matrix" values="0 0 0 0 0.575 0 0 0 0 0.563021 0 0 0 0 0.563021 0 0 0 0.2 0"/>
<feBlend mode="normal" in2="BackgroundImageFix" result="effect1_dropShadow_2186_6600"/>
<feBlend mode="normal" in="SourceGraphic" in2="effect1_dropShadow_2186_6600" result="shape"/>
</filter>
</defs>
</svg>
