<svg width="20" height="20" viewBox="0 0 20 20" fill="none" xmlns="http://www.w3.org/2000/svg">
<path d="M10.5894 7.25592L12.7443 9.41074C13.0697 9.73618 13.0697 10.2638 12.7443 10.5893L9.15881 14.1747C8.61129 14.7222 7.99014 15.1908 7.31327 15.5668L3.38315 17.7502C2.65051 18.1572 1.84296 17.3497 2.24998 16.617L4.43339 12.6869C4.80942 12.01 5.27796 11.3889 5.82547 10.8414L9.41094 7.25592C9.73637 6.93048 10.264 6.93048 10.5894 7.25592Z" fill="#A9ABAD"/>
<path d="M15.8334 7.50004L16.4584 8.12508C16.8036 8.47026 16.8036 9.0299 16.4584 9.37508C16.1133 9.72026 15.5536 9.72026 15.2084 9.37508L10.6251 4.79175C10.2799 4.44657 10.2799 3.88693 10.6251 3.54175C10.9703 3.19657 11.5299 3.19657 11.8751 3.54175L12.5001 4.16671L14.1668 2.49999C15.0872 1.57951 16.5796 1.57951 17.5001 2.49999C18.4206 3.42046 18.4206 4.91284 17.5001 5.83332L15.8334 7.50004Z" fill="#A9ABAD"/>
</svg>
