<svg width="24" height="24" viewBox="0 0 24 24" fill="none" xmlns="http://www.w3.org/2000/svg">
<path d="M4.56152 9.4751C7.30768 6.72894 11.7782 6.72901 14.5244 9.4751C17.2706 12.2213 17.2706 16.6918 14.5244 19.438C13.1469 20.8114 11.3426 21.4995 9.54102 21.4995C7.73508 21.4995 5.93476 20.8112 4.56152 19.438C1.81544 16.6918 1.81537 12.2213 4.56152 9.4751ZM9.54102 7.95459C7.87648 7.95459 6.21044 8.59144 4.94238 9.85498V9.85596C2.40562 12.3927 2.40562 16.5165 4.94238 19.0532C7.47914 21.59 11.6029 21.59 14.1396 19.0532C16.6764 16.5165 16.6764 12.3927 14.1396 9.85596V9.85498L13.8975 9.62549C12.6635 8.51429 11.1016 7.9546 9.54102 7.95459Z" fill="#7C7C8D" stroke="#7C7C8D"/>
<path d="M14.3313 10.4388C14.1355 10.4388 13.9397 10.3639 13.7855 10.2139C13.4856 9.91388 13.4856 9.42642 13.7855 9.12644L20.685 2.22694C20.985 1.92696 21.4725 1.92696 21.7725 2.22694C22.0724 2.52692 22.0724 3.01438 21.7725 3.31436L14.8771 10.2139C14.723 10.3639 14.5271 10.4388 14.3313 10.4388Z" fill="#7C7C8D"/>
<path d="M21.0197 9.22983C21.0113 9.22983 20.9988 9.22983 20.9905 9.22983C20.5655 9.21316 20.2364 8.85902 20.2489 8.43405L20.4281 3.5719L15.5659 3.74689C15.1284 3.76772 14.7826 3.43024 14.7701 3.00528C14.7535 2.58031 15.0868 2.222 15.5117 2.2095L21.203 2.00118C21.4155 1.98868 21.6238 2.07618 21.7738 2.22616C21.9238 2.37615 22.0071 2.58447 21.9988 2.79696L21.7905 8.48405C21.7738 8.90485 21.4322 9.22983 21.0197 9.22983Z" fill="#7C7C8D"/>
</svg>
