<svg width="24" height="24" viewBox="0 0 24 24" fill="none" xmlns="http://www.w3.org/2000/svg">
<path d="M12 3.52246C11.6361 3.52248 11.2844 3.65471 11.0107 3.89453L5.01074 9.13867C4.85072 9.27909 4.72178 9.45262 4.63379 9.64648C4.54588 9.84027 4.50027 10.0509 4.5 10.2637V19.0039C4.50008 19.4014 4.65826 19.7825 4.93945 20.0635C5.22078 20.3445 5.6024 20.5019 6 20.502H8.5V15.0088C8.5 14.3469 8.76365 13.7114 9.23242 13.2432C9.70117 12.7751 10.3369 12.5117 11 12.5117H13C13.6632 12.5117 14.2998 12.7749 14.7686 13.2432C15.2372 13.7114 15.5 14.347 15.5 15.0088V20.502H18C18.3976 20.502 18.7792 20.3445 19.0605 20.0635C19.3418 19.7825 19.4999 19.4015 19.5 19.0039V10.2637L19.4912 10.1045C19.4741 9.94647 19.4322 9.79184 19.3662 9.64648C19.2782 9.45263 19.1503 9.27909 18.9902 9.13867H18.9893L12.9893 3.89453C12.7156 3.65475 12.3638 3.52246 12 3.52246ZM11 13.5098C10.6024 13.5098 10.2208 13.6673 9.93945 13.9482C9.65811 14.2293 9.5 14.6111 9.5 15.0088V20.502H14.5V15.0088C14.5 14.6111 14.3419 14.2293 14.0605 13.9482C13.7792 13.6673 13.3976 13.5098 13 13.5098H11ZM3.5 10.2705C3.49718 9.91601 3.57023 9.56446 3.71387 9.24023C3.85748 8.91609 4.06841 8.62603 4.33301 8.38965L4.33203 8.38867L10.3291 3.13965L10.333 3.13574C10.7913 2.72631 11.3849 2.50002 12 2.5C12.6151 2.5 13.2087 2.72633 13.667 3.13574L13.6709 3.13965L19.667 8.38867V8.38965C19.9306 8.62514 20.1416 8.91362 20.2852 9.23633C20.4287 9.55903 20.5016 9.90863 20.5 10.2617V19.0039C20.4999 19.6656 20.2371 20.3004 19.7686 20.7686C19.2998 21.2368 18.6632 21.5 18 21.5H6C5.33686 21.5 4.70118 21.2367 4.23242 20.7686C3.76372 20.3004 3.50008 19.6657 3.5 19.0039V10.2705Z" fill="#7C7C8D" stroke="#7C7C8D"/>
</svg>
