<svg width="18" height="17" viewBox="0 0 18 17" fill="none" xmlns="http://www.w3.org/2000/svg">
<path d="M3.58268 13.0833H2.33268V3.91663H8.83268L8.16602 4.58329C7.99935 4.74996 7.91602 4.91663 7.91602 5.16663C7.91602 5.66663 8.24935 5.99996 8.74935 5.99996C8.99935 5.99996 9.16602 5.91663 9.33268 5.74996L11.416 3.66663C11.7493 3.33329 11.7493 2.83329 11.416 2.49996L9.33268 0.416626C8.99935 0.0832926 8.49935 0.0832926 8.16602 0.416626C7.83268 0.749959 7.83268 1.24996 8.16602 1.58329L8.83268 2.24996H1.49935C0.999349 2.24996 0.666016 2.58329 0.666016 3.08329V13.9166C0.666016 14.4166 0.999349 14.75 1.49935 14.75H3.58268C4.08268 14.75 4.41602 14.4166 4.41602 13.9166C4.41602 13.4166 4.08268 13.0833 3.58268 13.0833ZM16.4993 2.24996H14.416C13.916 2.24996 13.5827 2.58329 13.5827 3.08329C13.5827 3.58329 13.916 3.91663 14.416 3.91663H15.666V13.0833H8.66602L9.33268 12.4166C9.66602 12.0833 9.66602 11.5833 9.33268 11.25C8.99935 10.9166 8.49935 10.9166 8.16602 11.25L6.08268 13.3333C5.74935 13.6666 5.74935 14.1666 6.08268 14.5L8.16602 16.5833C8.33268 16.75 8.49935 16.8333 8.74935 16.8333C8.99935 16.8333 9.16602 16.75 9.33268 16.5833C9.66602 16.25 9.66602 15.75 9.33268 15.4166L8.66602 14.75H16.4993C16.9993 14.75 17.3327 14.4166 17.3327 13.9166V3.08329C17.3327 2.58329 16.9993 2.24996 16.4993 2.24996Z" fill="#818181"/>
</svg>
