<svg width="20" height="20" viewBox="0 0 20 20" fill="none" xmlns="http://www.w3.org/2000/svg">
<path fill-rule="evenodd" clip-rule="evenodd" d="M5.83366 13.2511V15.8292L10.0522 13.3365L10.4931 13.3292C12.2463 13.3005 13.8242 13.124 15.004 12.9445C15.7485 12.8312 16.2659 12.3116 16.3783 11.6591C16.5342 10.754 16.667 9.60739 16.667 8.33329C16.667 7.05919 16.5342 5.91256 16.3783 5.00751C16.2659 4.35503 15.7485 3.83539 15.004 3.7221C13.7136 3.52576 11.9489 3.33329 10.0003 3.33329C8.05171 3.33329 6.28706 3.52576 4.99668 3.7221C4.25211 3.83539 3.73474 4.35503 3.62235 5.00752C3.46646 5.91256 3.33366 7.05919 3.33366 8.33329C3.33366 9.60739 3.46646 10.754 3.62235 11.6591C3.71995 12.2257 4.11577 12.6798 4.69289 12.8717L5.83366 13.2511ZM1.97987 4.7246C2.2217 3.32069 3.33759 2.28869 4.74597 2.0744C6.09541 1.86907 7.94665 1.66663 10.0003 1.66663C12.054 1.66663 13.9052 1.86907 15.2547 2.0744C16.6631 2.28869 17.779 3.32069 18.0208 4.7246C18.1893 5.70306 18.3337 6.946 18.3337 8.33329C18.3337 9.72058 18.1893 10.9635 18.0208 11.942C17.779 13.3459 16.6631 14.3779 15.2547 14.5922C14.0202 14.78 12.3657 14.9655 10.5204 14.9957L5.42426 18.007C4.86875 18.3353 4.16699 17.9348 4.16699 17.2896V14.4533C3.03913 14.0782 2.18746 13.1471 1.97987 11.942C1.81134 10.9635 1.66699 9.72058 1.66699 8.33329C1.66699 6.946 1.81134 5.70306 1.97987 4.7246Z" fill="#72767C"/>
<path fill-rule="evenodd" clip-rule="evenodd" d="M5.83333 5.83337C5.3731 5.83337 5 6.20647 5 6.66671C5 7.12694 5.3731 7.50004 5.83333 7.50004H14.1667C14.6269 7.50004 15 7.12694 15 6.66671C15 6.20647 14.6269 5.83337 14.1667 5.83337H5.83333ZM5.83333 9.16671C5.3731 9.16671 5 9.5398 5 10C5 10.4603 5.3731 10.8334 5.83333 10.8334H9.16667C9.6269 10.8334 10 10.4603 10 10C10 9.5398 9.6269 9.16671 9.16667 9.16671H5.83333Z" fill="#72767C"/>
</svg>
