<svg width="52" height="52" viewBox="0 0 52 52" fill="none" xmlns="http://www.w3.org/2000/svg">
<g filter="url(#filter0_d_2186_6589)">
<rect x="4" y="2" width="44" height="44" rx="22" fill="white" shape-rendering="crispEdges"/>
<path d="M25.1908 15.6667C24.0965 15.6667 23.0128 15.8823 22.0018 16.3011C20.9907 16.7199 20.0721 17.3337 19.2982 18.1075C17.7354 19.6703 16.8575 21.7899 16.8575 24.0001C16.8502 25.9244 17.5165 27.7905 18.7408 29.2751L17.0741 30.9417C16.9585 31.0589 16.8802 31.2077 16.849 31.3694C16.8179 31.5311 16.8353 31.6983 16.8991 31.8501C16.9684 32 17.0806 32.126 17.2215 32.2121C17.3625 32.2981 17.5258 32.3404 17.6908 32.3334H25.1908C27.4009 32.3334 29.5206 31.4554 31.0834 29.8926C32.6462 28.3298 33.5241 26.2102 33.5241 24.0001C33.5241 21.7899 32.6462 19.6703 31.0834 18.1075C29.5206 16.5447 27.4009 15.6667 25.1908 15.6667ZM25.1908 30.6667H19.6991L20.4741 29.8917C20.6293 29.7356 20.7165 29.5244 20.7165 29.3042C20.7165 29.0841 20.6293 28.8729 20.4741 28.7167C19.383 27.6268 18.7035 26.1922 18.5514 24.6574C18.3993 23.1226 18.7841 21.5826 19.6402 20.2997C20.4962 19.0168 21.7706 18.0704 23.2462 17.6217C24.7218 17.1731 26.3074 17.2499 27.7327 17.8392C29.158 18.4284 30.3349 19.4936 31.0628 20.8533C31.7908 22.213 32.0249 23.783 31.7251 25.2959C31.4253 26.8088 30.6102 28.171 29.4188 29.1503C28.2273 30.1296 26.7331 30.6655 25.1908 30.6667Z" fill="#242731"/>
</g>
<defs>
<filter id="filter0_d_2186_6589" x="0" y="0" width="52" height="52" filterUnits="userSpaceOnUse" color-interpolation-filters="sRGB">
<feFlood flood-opacity="0" result="BackgroundImageFix"/>
<feColorMatrix in="SourceAlpha" type="matrix" values="0 0 0 0 0 0 0 0 0 0 0 0 0 0 0 0 0 0 127 0" result="hardAlpha"/>
<feOffset dy="2"/>
<feGaussianBlur stdDeviation="2"/>
<feComposite in2="hardAlpha" operator="out"/>
<feColorMatrix type="matrix" values="0 0 0 0 0.575 0 0 0 0 0.563021 0 0 0 0 0.563021 0 0 0 0.2 0"/>
<feBlend mode="normal" in2="BackgroundImageFix" result="effect1_dropShadow_2186_6589"/>
<feBlend mode="normal" in="SourceGraphic" in2="effect1_dropShadow_2186_6589" result="shape"/>
</filter>
</defs>
</svg>
