<svg width="44" height="44" viewBox="0 0 44 44" fill="none" xmlns="http://www.w3.org/2000/svg">
<rect width="44" height="44" rx="22" fill="#F2F6F8"/>
<path d="M20 22C20 22.3956 20.1173 22.7822 20.3371 23.1111C20.5568 23.44 20.8692 23.6964 21.2346 23.8478C21.6001 23.9991 22.0022 24.0387 22.3902 23.9616C22.7781 23.8844 23.1345 23.6939 23.4142 23.4142C23.6939 23.1345 23.8844 22.7781 23.9616 22.3902C24.0387 22.0022 23.9991 21.6001 23.8478 21.2346C23.6964 20.8692 23.44 20.5568 23.1111 20.3371C22.7822 20.1173 22.3956 20 22 20C21.4696 20 20.9609 20.2107 20.5858 20.5858C20.2107 20.9609 20 21.4696 20 22ZM20 29C20 29.3956 20.1173 29.7822 20.3371 30.1111C20.5568 30.44 20.8692 30.6964 21.2346 30.8478C21.6001 30.9991 22.0022 31.0387 22.3902 30.9616C22.7781 30.8844 23.1345 30.6939 23.4142 30.4142C23.6939 30.1345 23.8844 29.7781 23.9616 29.3902C24.0387 29.0022 23.9991 28.6001 23.8478 28.2346C23.6964 27.8692 23.44 27.5568 23.1111 27.3371C22.7822 27.1173 22.3956 27 22 27C21.4696 27 20.9609 27.2107 20.5858 27.5858C20.2107 27.9609 20 28.4696 20 29ZM20 15C20 15.3956 20.1173 15.7822 20.3371 16.1111C20.5568 16.44 20.8692 16.6964 21.2346 16.8478C21.6001 16.9991 22.0022 17.0387 22.3902 16.9616C22.7781 16.8844 23.1345 16.6939 23.4142 16.4142C23.6939 16.1345 23.8844 15.7781 23.9616 15.3902C24.0387 15.0022 23.9991 14.6001 23.8478 14.2346C23.6964 13.8692 23.44 13.5568 23.1111 13.3371C22.7822 13.1173 22.3956 13 22 13C21.4696 13 20.9609 13.2107 20.5858 13.5858C20.2107 13.9609 20 14.4696 20 15Z" fill="#7C7C8D"/>
</svg>
