<svg width="20" height="21" viewBox="0 0 20 21" fill="none" xmlns="http://www.w3.org/2000/svg">
<path d="M13.0377 11.0962C13.8547 10.4534 14.451 9.57197 14.7437 8.57449C15.0364 7.57701 15.011 6.51309 14.6709 5.53076C14.3308 4.54843 13.6929 3.69653 12.8461 3.09359C11.9993 2.49064 10.9856 2.16663 9.94604 2.16663C8.9065 2.16663 7.8928 2.49064 7.04598 3.09359C6.19916 3.69653 5.56133 4.54843 5.22122 5.53076C4.88111 6.51309 4.85564 7.57701 5.14834 8.57449C5.44105 9.57197 6.03738 10.4534 6.85438 11.0962C5.45444 11.6571 4.23295 12.5873 3.32012 13.7878C2.40729 14.9883 1.83734 16.414 1.67104 17.9129C1.659 18.0223 1.66864 18.133 1.6994 18.2388C1.73015 18.3445 1.78143 18.4431 1.8503 18.529C1.98939 18.7024 2.1917 18.8136 2.41271 18.8379C2.63372 18.8622 2.85534 18.7977 3.02881 18.6586C3.20228 18.5195 3.3134 18.3172 3.33771 18.0962C3.5207 16.4672 4.29745 14.9627 5.51956 13.8702C6.74167 12.7777 8.32346 12.1737 9.96271 12.1737C11.602 12.1737 13.1837 12.7777 14.4059 13.8702C15.628 14.9627 16.4047 16.4672 16.5877 18.0962C16.6104 18.301 16.7081 18.4901 16.862 18.6271C17.0159 18.764 17.215 18.8391 17.421 18.8379H17.5127C17.7312 18.8127 17.9308 18.7023 18.0682 18.5306C18.2055 18.3589 18.2695 18.1398 18.246 17.9212C18.079 16.418 17.5059 14.9887 16.5884 13.7864C15.6709 12.5841 14.4435 11.6541 13.0377 11.0962ZM9.94604 10.5045C9.28677 10.5045 8.64231 10.309 8.09414 9.94277C7.54598 9.5765 7.11874 9.0559 6.86644 8.44682C6.61415 7.83773 6.54814 7.16751 6.67676 6.52091C6.80538 5.8743 7.12284 5.28036 7.58902 4.81418C8.05519 4.34801 8.64914 4.03054 9.29574 3.90192C9.94235 3.7733 10.6126 3.83932 11.2217 4.09161C11.8307 4.3439 12.3513 4.77114 12.7176 5.31931C13.0839 5.86747 13.2794 6.51194 13.2794 7.17121C13.2794 8.05526 12.9282 8.90311 12.3031 9.52823C11.6779 10.1534 10.8301 10.5045 9.94604 10.5045Z" fill="#A162F7"/>
</svg>
