<svg width="20" height="20" viewBox="0 0 20 20" fill="none" xmlns="http://www.w3.org/2000/svg">
<path fill-rule="evenodd" clip-rule="evenodd" d="M16.6249 5.90876C16.6336 5.25784 16.3896 4.60419 15.8929 4.10752C15.3962 3.61086 14.7426 3.36686 14.0917 3.37552C14.0914 3.37552 14.0919 3.37551 14.0917 3.37552C13.7319 3.38041 13.3722 3.46249 13.0411 3.62176C12.9225 3.67884 12.8074 3.74582 12.6971 3.82273C12.6547 3.85234 12.6 3.8591 12.5522 3.83927C12.5044 3.81945 12.4705 3.77602 12.4614 3.72509C12.4378 3.59274 12.4038 3.464 12.3603 3.33974C12.2388 2.99301 12.043 2.68118 11.7921 2.42333C11.7919 2.42316 11.7923 2.42351 11.7921 2.42333C11.338 1.95694 10.7027 1.66675 10.0003 1.66675C9.29793 1.66675 8.6632 1.95641 8.20905 2.4228C8.20888 2.42298 8.20923 2.42263 8.20905 2.4228C7.95812 2.68065 7.76185 2.99301 7.64036 3.33974C7.59681 3.464 7.56281 3.59274 7.53922 3.72509C7.53014 3.77602 7.49623 3.81945 7.44845 3.83927C7.40062 3.8591 7.34597 3.85234 7.30351 3.82273C7.19324 3.74582 7.07816 3.67883 6.95951 3.62176C6.62842 3.46249 6.26951 3.38042 5.90974 3.37553C5.90949 3.37552 5.90998 3.37553 5.90974 3.37553C5.25882 3.36687 4.60444 3.61086 4.10777 4.10752C3.6111 4.60419 3.3671 5.25784 3.37576 5.90876C3.37576 5.90851 3.37576 5.909 3.37576 5.90876C3.38065 6.26852 3.46274 6.62817 3.622 6.95926C3.67908 7.07791 3.74607 7.19299 3.82297 7.30326C3.85259 7.34573 3.85934 7.40038 3.83951 7.4482C3.8197 7.49599 3.77626 7.5299 3.72534 7.53897C3.59298 7.56257 3.46423 7.59657 3.33997 7.64012C2.99324 7.76162 2.68142 7.95737 2.42358 8.2083C2.4234 8.20847 2.42375 8.20813 2.42358 8.2083C1.95719 8.66244 1.66699 9.29769 1.66699 10.0001C1.66699 10.7025 1.95666 11.3372 2.42305 11.7914C2.42287 11.7912 2.42322 11.7915 2.42305 11.7914C2.6809 12.0423 2.99324 12.2385 3.33997 12.36C3.46423 12.4036 3.59298 12.4376 3.72534 12.4612C3.77626 12.4703 3.8197 12.5042 3.83951 12.552C3.85934 12.5998 3.85259 12.6544 3.82297 12.6969C3.74607 12.8072 3.67908 12.9223 3.622 13.0409C3.46274 13.372 3.38066 13.7309 3.37577 14.0907C3.37577 14.0909 3.37577 14.0904 3.37577 14.0907C3.36711 14.7416 3.6111 15.396 4.10777 15.8926C4.60444 16.3893 5.25809 16.6333 5.909 16.6246C5.90876 16.6247 5.90925 16.6246 5.909 16.6246C6.26876 16.6198 6.62841 16.5377 6.95949 16.3784C7.07815 16.3213 7.19323 16.2543 7.3035 16.1774C7.34597 16.1478 7.40062 16.1411 7.44845 16.1609C7.49623 16.1807 7.53014 16.2241 7.53922 16.2751C7.56281 16.4074 7.59682 16.5362 7.64037 16.6604C7.76186 17.0072 7.95761 17.319 8.20854 17.5768C8.20837 17.5767 8.20871 17.577 8.20854 17.5768C8.66268 18.0432 9.29793 18.3334 10.0003 18.3334C10.7027 18.3334 11.3375 18.0437 11.7916 17.5774C11.7914 17.5775 11.7918 17.5772 11.7916 17.5774C12.0425 17.3195 12.2388 17.0072 12.3603 16.6604C12.4038 16.5362 12.4378 16.4074 12.4614 16.2751C12.4705 16.2241 12.5044 16.1807 12.5522 16.1609C12.6 16.1411 12.6547 16.1478 12.6972 16.1774C12.8074 16.2543 12.9225 16.3213 13.0412 16.3784C13.3723 16.5377 13.7312 16.6197 14.0909 16.6246C14.0907 16.6246 14.0912 16.6246 14.0909 16.6246C14.7418 16.6333 15.3962 16.3893 15.8929 15.8926C16.3896 15.396 16.6336 14.7423 16.6249 14.0914C16.6249 14.0912 16.6249 14.0916 16.6249 14.0914C16.62 13.7316 16.5379 13.372 16.3787 13.0409C16.3216 12.9223 16.2546 12.8072 16.1777 12.6969C16.1481 12.6544 16.1413 12.5998 16.1611 12.552C16.181 12.5042 16.2244 12.4703 16.2753 12.4612C16.4077 12.4376 16.5364 12.4036 16.6607 12.36C17.0074 12.2385 17.3192 12.0428 17.5771 11.7919C17.5769 11.792 17.5773 11.7917 17.5771 11.7919C18.0435 11.3377 18.3337 10.7025 18.3337 10.0001C18.3337 9.29769 18.044 8.66295 17.5776 8.20881C17.5774 8.20864 17.5778 8.20898 17.5776 8.20881C17.3198 7.95788 17.0074 7.76162 16.6607 7.64012C16.5364 7.59657 16.4077 7.56257 16.2753 7.53897C16.2244 7.5299 16.181 7.49599 16.1611 7.4482C16.1413 7.40038 16.1481 7.34572 16.1777 7.30326C16.2546 7.19299 16.3216 7.07791 16.3787 6.95925C16.5379 6.62816 16.62 6.26852 16.6249 5.90876C16.6249 5.90851 16.6249 5.909 16.6249 5.90876ZM14.7144 5.28604C14.4257 4.99735 13.9746 4.96378 13.6506 5.18976C13.159 5.53262 12.5061 5.62443 11.9138 5.37882C11.323 5.13384 10.9259 4.60829 10.8206 4.01757C10.7513 3.62866 10.4086 3.33341 10.0003 3.33341C9.59207 3.33341 9.24934 3.62866 9.18002 4.01757C9.07472 4.60828 8.67763 5.13384 8.08686 5.37882C7.49456 5.62443 6.84169 5.53261 6.3501 5.18976C6.02608 4.96378 5.57496 4.99735 5.28628 5.28604C4.9976 5.57472 4.96402 6.02583 5.19001 6.34985C5.53286 6.84145 5.62467 7.49431 5.37906 8.08662C5.13408 8.67739 4.60852 9.07448 4.01781 9.17978C3.6289 9.2491 3.33366 9.59182 3.33366 10.0001C3.33366 10.4083 3.6289 10.7511 4.01781 10.8204C4.60853 10.9257 5.13408 11.3228 5.37906 11.9135C5.62467 12.5059 5.53286 13.1587 5.19001 13.6503C4.96403 13.9743 4.9976 14.4254 5.28628 14.7141C5.57496 15.0028 6.02607 15.0364 6.35009 14.8104C6.84169 14.4676 7.49455 14.3757 8.08686 14.6213C8.67763 14.8663 9.07472 15.3919 9.18002 15.9826C9.24935 16.3715 9.59207 16.6667 10.0003 16.6667C10.4086 16.6667 10.7513 16.3715 10.8206 15.9826C10.9259 15.3919 11.323 14.8663 11.9138 14.6214C12.5061 14.3757 13.159 14.4676 13.6506 14.8104C13.9746 15.0364 14.4257 15.0028 14.7144 14.7141C15.0031 14.4254 15.0366 13.9743 14.8106 13.6503C14.4678 13.1587 14.376 12.5059 14.6216 11.9135C14.8666 11.3228 15.3921 10.9257 15.9828 10.8204C16.3717 10.7511 16.667 10.4083 16.667 10.0001C16.667 9.59182 16.3717 9.2491 15.9828 9.17978C15.3921 9.07448 14.8666 8.67739 14.6216 8.08662C14.376 7.49431 14.4678 6.84144 14.8106 6.34985C15.0366 6.02583 15.0031 5.57472 14.7144 5.28604Z" fill="#72767C"/>
<path fill-rule="evenodd" clip-rule="evenodd" d="M10.0003 11.6667C10.9208 11.6667 11.667 10.9206 11.667 10.0001C11.667 9.07961 10.9208 8.33341 10.0003 8.33341C9.07985 8.33341 8.33366 9.07961 8.33366 10.0001C8.33366 10.9206 9.07985 11.6667 10.0003 11.6667ZM10.0003 13.3334C11.8413 13.3334 13.3337 11.841 13.3337 10.0001C13.3337 8.15913 11.8413 6.66675 10.0003 6.66675C8.15938 6.66675 6.66699 8.15913 6.66699 10.0001C6.66699 11.841 8.15938 13.3334 10.0003 13.3334Z" fill="#72767C"/>
</svg>
