<svg width="20" height="20" viewBox="0 0 20 20" fill="none" xmlns="http://www.w3.org/2000/svg">
<path fill-rule="evenodd" clip-rule="evenodd" d="M9.19058 12.5005C9.65049 12.4831 10.0374 12.8419 10.0548 13.3018C10.0939 14.3386 10.1489 15.0954 10.2029 15.6379C10.2562 16.1723 10.5787 16.4938 11.0284 16.5487C11.5586 16.6135 12.3065 16.6666 13.3329 16.6666C14.3593 16.6666 15.1073 16.6135 15.6375 16.5487C16.0869 16.4938 16.4096 16.1721 16.4629 15.6377C16.5632 14.6306 16.6662 12.8906 16.6662 9.99992C16.6662 7.10924 16.5632 5.36926 16.4629 4.36215C16.4096 3.82769 16.0869 3.50606 15.6375 3.45111C15.1073 3.3863 14.3593 3.33325 13.3329 3.33325C12.3065 3.33325 11.5586 3.38629 11.0284 3.45111C10.5787 3.50607 10.2562 3.82757 10.2029 4.36189C10.1489 4.90446 10.0939 5.6612 10.0548 6.69802C10.0374 7.15793 9.65049 7.51669 9.19058 7.49932C8.73067 7.48196 8.37191 7.09506 8.38928 6.63515C8.42945 5.57095 8.48641 4.77944 8.54447 4.19668C8.66651 2.97154 9.52068 1.95634 10.8261 1.79676C11.4338 1.72247 12.2503 1.66658 13.3329 1.66658C14.4156 1.66658 15.232 1.72248 15.8397 1.79676C17.1453 1.95637 17.9993 2.97204 18.1213 4.19694C18.2288 5.27548 18.3329 7.07365 18.3329 9.99992C18.3329 12.9262 18.2288 14.7244 18.1213 15.8029C17.9993 17.0278 17.1453 18.0435 15.8397 18.2031C15.232 18.2774 14.4156 18.3333 13.3329 18.3333C12.2503 18.3333 11.4338 18.2774 10.8261 18.2031C9.52069 18.0435 8.66651 17.0283 8.54447 15.8032C8.48641 15.2204 8.42945 14.4289 8.38928 13.3647C8.37191 12.9048 8.73067 12.5179 9.19058 12.5005Z" fill="#72767C"/>
<path fill-rule="evenodd" clip-rule="evenodd" d="M6.00625 12.3274C6.33169 12.6528 6.33169 13.1805 6.00625 13.5059C5.68081 13.8314 5.15317 13.8314 4.82774 13.5059L1.91107 10.5893C1.58563 10.2638 1.58563 9.73618 1.91107 9.41074L4.82774 6.49408C5.15317 6.16864 5.68081 6.16864 6.00625 6.49408C6.33169 6.81951 6.33169 7.34715 6.00625 7.67259L4.51217 9.16667H12.5003C12.9606 9.16667 13.3337 9.53976 13.3337 10C13.3337 10.4602 12.9606 10.8333 12.5003 10.8333L4.51217 10.8333L6.00625 12.3274Z" fill="#72767C"/>
</svg>
