<svg width="44" height="44" viewBox="0 0 44 44" fill="none" xmlns="http://www.w3.org/2000/svg">
<rect width="44" height="44" rx="22" fill="#F2F6F8"/>
<path d="M31.53 17.15C31.378 17.0622 31.2055 17.016 31.03 17.016C30.8545 17.016 30.682 17.0622 30.53 17.15L27 18.89C26.9715 18.1136 26.6429 17.3785 26.0834 16.8394C25.5238 16.3004 24.777 15.9995 24 16H15C14.2044 16 13.4413 16.3161 12.8787 16.8787C12.3161 17.4413 12 18.2044 12 19V25C12 25.7957 12.3161 26.5587 12.8787 27.1213C13.4413 27.6839 14.2044 28 15 28H24C24.777 28.0005 25.5238 27.6996 26.0834 27.1606C26.6429 26.6215 26.9715 25.8864 27 25.11L30.56 26.89C30.6963 26.9599 30.8468 26.9975 31 27C31.1872 27.0006 31.3709 26.9486 31.53 26.85C31.6741 26.7599 31.7929 26.6346 31.8751 26.4859C31.9574 26.3372 32.0003 26.1699 32 26V18C32.0003 17.8301 31.9574 17.6628 31.8751 17.5141C31.7929 17.3654 31.6741 17.2401 31.53 17.15ZM25 25C25 25.2652 24.8946 25.5196 24.7071 25.7071C24.5196 25.8946 24.2652 26 24 26H15C14.7348 26 14.4804 25.8946 14.2929 25.7071C14.1054 25.5196 14 25.2652 14 25V19C14 18.7348 14.1054 18.4804 14.2929 18.2929C14.4804 18.1054 14.7348 18 15 18H24C24.2652 18 24.5196 18.1054 24.7071 18.2929C24.8946 18.4804 25 18.7348 25 19V25ZM30 24.38L27 22.88V21.12L30 19.62V24.38Z" fill="#7C7C8D"/>
</svg>
