<svg width="52" height="52" viewBox="0 0 52 52" fill="none" xmlns="http://www.w3.org/2000/svg">
<g filter="url(#filter0_d_2186_6611)">
<rect x="4" y="2" width="44" height="44" rx="22" fill="white" shape-rendering="crispEdges"/>
<path d="M34.0893 26.9817L30.3227 23.2234C30.4015 22.8395 30.4406 22.4486 30.4393 22.0567C30.4391 20.9822 30.1679 19.9252 29.651 18.9833C29.134 18.0413 28.388 17.2449 27.4818 16.6676C26.5756 16.0904 25.5385 15.7508 24.4663 15.6805C23.3942 15.6101 22.3216 15.8111 21.3477 16.265C21.2243 16.3214 21.1165 16.407 21.0338 16.5145C20.951 16.622 20.8957 16.748 20.8727 16.8817C20.8498 17.0137 20.859 17.1492 20.8996 17.2769C20.9402 17.4046 21.011 17.5205 21.106 17.615L24.731 21.2317L23.231 22.7317L19.6143 19.1067C19.5191 19.0132 19.4027 18.944 19.2751 18.9048C19.1475 18.8656 19.0123 18.8577 18.881 18.8817C18.7482 18.9039 18.6227 18.9579 18.5153 19.0392C18.4079 19.1204 18.3218 19.2265 18.2643 19.3484C17.809 20.3254 17.6081 21.4018 17.6804 22.4774C17.7528 23.553 18.096 24.5928 18.6781 25.5001C19.2602 26.4074 20.0624 27.1527 21.01 27.6667C21.9575 28.1808 23.0197 28.4468 24.0977 28.44C24.4895 28.4413 24.8805 28.4022 25.2643 28.3234L29.0227 32.09C29.1002 32.1681 29.1923 32.2301 29.2939 32.2724C29.3954 32.3147 29.5043 32.3365 29.6143 32.3365C29.7244 32.3365 29.8333 32.3147 29.9348 32.2724C30.0364 32.2301 30.1285 32.1681 30.206 32.09C30.2841 32.0126 30.3461 31.9204 30.3884 31.8188C30.4307 31.7173 30.4525 31.6084 30.4525 31.4984C30.4525 31.3883 30.4307 31.2794 30.3884 31.1779C30.3461 31.0763 30.2841 30.9842 30.206 30.9067L26.1227 26.8234C26.0206 26.722 25.8941 26.6488 25.7554 26.6108C25.6166 26.5728 25.4705 26.5714 25.331 26.6067C24.9287 26.7144 24.5142 26.7704 24.0977 26.7734C23.4744 26.7789 22.8562 26.661 22.2786 26.4265C21.7011 26.192 21.1757 25.8456 20.7326 25.4072C20.2895 24.9688 19.9376 24.447 19.697 23.872C19.4565 23.297 19.3321 22.68 19.331 22.0567C19.3299 21.7775 19.3522 21.4988 19.3977 21.2234L22.6643 24.4984C22.7418 24.5765 22.834 24.6385 22.9355 24.6808C23.0371 24.7231 23.146 24.7449 23.256 24.7449C23.366 24.7449 23.4749 24.7231 23.5765 24.6808C23.678 24.6385 23.7702 24.5765 23.8477 24.4984L26.4977 21.8234C26.6479 21.668 26.7318 21.4603 26.7318 21.2442C26.7318 21.0281 26.6479 20.8204 26.4977 20.665L23.256 17.3984C23.5315 17.3534 23.8102 17.3311 24.0893 17.3317C25.3411 17.3339 26.5407 17.8327 27.425 18.7186C28.3094 19.6044 28.806 20.805 28.806 22.0567C28.8031 22.4732 28.7471 22.8877 28.6393 23.29C28.6041 23.4295 28.6055 23.5757 28.6435 23.7144C28.6814 23.8531 28.7547 23.9796 28.856 24.0817L32.9393 28.165C33.0963 28.3219 33.3091 28.4101 33.531 28.4101C33.7529 28.4101 33.9658 28.3219 34.1227 28.165C34.2796 28.0081 34.3678 27.7953 34.3678 27.5734C34.3678 27.3514 34.2796 27.1386 34.1227 26.9817H34.0893Z" fill="#72767C"/>
</g>
<defs>
<filter id="filter0_d_2186_6611" x="0" y="0" width="52" height="52" filterUnits="userSpaceOnUse" color-interpolation-filters="sRGB">
<feFlood flood-opacity="0" result="BackgroundImageFix"/>
<feColorMatrix in="SourceAlpha" type="matrix" values="0 0 0 0 0 0 0 0 0 0 0 0 0 0 0 0 0 0 127 0" result="hardAlpha"/>
<feOffset dy="2"/>
<feGaussianBlur stdDeviation="2"/>
<feComposite in2="hardAlpha" operator="out"/>
<feColorMatrix type="matrix" values="0 0 0 0 0.575 0 0 0 0 0.563021 0 0 0 0 0.563021 0 0 0 0.2 0"/>
<feBlend mode="normal" in2="BackgroundImageFix" result="effect1_dropShadow_2186_6611"/>
<feBlend mode="normal" in="SourceGraphic" in2="effect1_dropShadow_2186_6611" result="shape"/>
</filter>
</defs>
</svg>
